<?xml version="1.0" encoding="utf-8"?>
<!-- Generator: Adobe Illustrator 16.0.4, SVG Export Plug-In . SVG Version: 6.00 Build 0)  -->
<!DOCTYPE svg PUBLIC "-//W3C//DTD SVG 1.1//EN" "http://www.w3.org/Graphics/SVG/1.1/DTD/svg11.dtd">
<svg version="1.1" id="Calque_1" xmlns="http://www.w3.org/2000/svg" xmlns:xlink="http://www.w3.org/1999/xlink" x="0px" y="0px"
	 width="1000px" height="681px" viewBox="0 -206 1000 681" enable-background="new 0 -206 1000 681" xml:space="preserve">
<path fill="#FFD12E" d="M179.573,66.027c-3.654,0-7.338,0.347-10.946,1.026c-21.569,4.059-29.903,26.418-31.495,46.287
	c-1.633,20.411,0.317,48.031,21.75,57.347c3.806,1.655,7.706,2.627,11.593,2.986c0.212-2.388,0.35-4.799,0.408-7.233
	c0.165-6.944,5.642-10.417,11.038-10.417c5.394,0,10.707,3.473,10.542,10.417c-0.023,0.967-0.056,1.938-0.1,2.904
	c8.723-4.412,16.068-11.799,20.36-20.942c4.033-8.586-3.487-16.453-10.502-16.453c-3.195,0-6.284,1.629-8.131,5.563
	c-3.775,8.045-10.566,14.588-19.605,14.588c-0.872,0-1.765-0.06-2.676-0.185c-13-1.797-13.044-17.955-13.343-27.884
	c-0.279-9.182,0.223-19.694,4.938-27.845c2.033-3.513,3.826-6.135,7.634-7.824c1.66-0.734,3.98-1.099,6.552-1.099
	c8.133-0.002,18.78,3.642,18.956,10.743c0.176,6.938,5.668,10.416,11.067,10.416c5.391,0,10.687-3.463,10.513-10.416
	C217.582,75.894,199.048,66.027,179.573,66.027"/>
<path fill="#F9AE30" d="M238.202,72.284c-0.077,0.449-0.126,0.914-0.153,1.397c-1.587,29.34-3.179,58.678-4.766,88.017
	c-0.289,5.348,4.828,10.812,10.226,10.812c0.189,0,0.377-0.008,0.565-0.02c18.944-1.358,37.886-2.04,56.838-2.04
	c7.327,0,14.657,0.103,21.99,0.306c-0.01-4.627-0.027-9.25-0.054-13.877c-0.028-2.568-0.058-5.14-0.092-7.706
	c-7.288-0.2-14.575-0.3-21.858-0.3c-15.145,0-30.275,0.433-45.413,1.299c0.371-6.854,0.742-13.708,1.113-20.562
	c-3.374-0.344-6.745-0.735-10.114-1.172c-13.066-1.691-13.701-21.684-1.563-21.684c0.499,0,1.02,0.034,1.563,0.104
	c3.756,0.487,7.516,0.916,11.276,1.291c0.445-8.177,0.889-16.355,1.329-24.531c-3.493,0-6.985,0-10.479,0.002
	C241.424,83.619,237.957,77.855,238.202,72.284"/>
<path fill="#F9AE30" d="M257.762,108.148c-0.387,7.154-0.776,14.309-1.163,21.461c12.406,1.273,24.839,1.939,37.331,1.997h0.059
	c13.831,0,13.829-21.519-0.059-21.58C281.826,109.971,269.781,109.345,257.762,108.148"/>
<path fill="#EF7D0A" d="M244.921,106.755c-12.137,0-11.502,19.99,1.564,21.684c3.37,0.435,6.742,0.826,10.115,1.172
	c0.386-7.153,0.774-14.309,1.161-21.461c-3.76-0.375-7.52-0.805-11.276-1.291C245.943,106.788,245.42,106.755,244.921,106.755"/>
<path fill="#F9AE30" d="M299.872,62.031h-0.004c-17.083,0-34.171,0.004-51.257,0.008c-6.709,0-10.182,5.039-10.41,10.246
	c1.002-5.993,6.191-8.996,11.214-8.996c5.391,0,10.59,3.459,10.213,10.392c-0.178,3.311-0.358,6.625-0.537,9.936
	c13.593-0.002,27.186-0.002,40.777-0.006C313.749,83.611,313.775,62.031,299.872,62.031"/>
<path fill="#EF7D0A" d="M249.415,63.29c-5.022,0-10.212,3.002-11.214,8.995c-0.244,5.571,3.223,11.335,10.411,11.335
	c3.493,0,6.984-0.002,10.48-0.002c0.178-3.312,0.358-6.625,0.536-9.936C260.006,66.749,254.806,63.29,249.415,63.29"/>
<path fill="#E84127" d="M392.685,26.61c-5.386,0-10.532,3.445-10.069,10.375c2.171,32.465,3.335,64.954,3.498,97.472
	c-17.118-13.915-35.122-27.595-43.308-48.186c-0.034-0.086-0.07-0.17-0.106-0.256c0.289,0.95,0.461,1.995,0.489,3.129
	c0.557,22.509,0.994,45.034,1.241,67.563c-0.059-10.559-0.156-21.119-0.329-31.683c13.839,14.354,30.533,26.128,45.115,40.865
	c2.107,2.126,4.72,3.069,7.313,3.069c5.574,0,11.042-4.364,11.105-10.702c0.405-40.471-0.743-80.891-3.435-121.272
	C403.736,30.082,398.09,26.61,392.685,26.61 M330.321,78.857c-4.779,0.44-8.945,3.779-8.713,10.288
	C321.455,82.974,325.612,79.548,330.321,78.857 M322.905,170.757c0.044,17.592,0.016,35.177,0.061,52.78
	c0.148-17.592,0.14-35.181,0.012-52.776C322.951,170.761,322.929,170.761,322.905,170.757 M344.546,223.787
	c-0.068,8.154-0.17,16.304-0.308,24.458c0.273-0.976,0.417-2.043,0.409-3.215C344.595,237.946,344.565,230.865,344.546,223.787"/>
<path fill="#E63316" d="M322.849,156.876c0.025,4.631,0.042,9.254,0.055,13.885c0.025,0,0.048,0,0.071,0
	C322.942,166.13,322.899,161.507,322.849,156.876"/>
<path fill="#BD1F2D" d="M423.901,67.923c-13.835,0-13.833,21.521,0.056,21.58c6.86,0.029,13.719,0.104,20.578,0.216
	c-0.363-2.096-0.795-4.165-1.311-6.204c-2.044-8.119,4.681-13.416,11.1-13.416c4.249,0,8.363,2.321,9.713,7.678
	c1.023,4.062,1.773,8.211,2.309,12.416c7.785,0.21,15.573,0.463,23.357,0.75c0.153-4.796,0.84-9.326,2.617-12.936
	c3.388-6.885,8.044-7.908,14.242-7.908c0.839,0,1.707,0.018,2.603,0.044c-28.387-1.23-56.792-2.096-85.206-2.22H423.901"/>
<path fill="#BD1F2D" d="M444.535,89.718c3.882,22.434-0.361,47.943-1.185,70.231c-0.261,6.944,5,10.408,10.393,10.408
	c5.398,0,10.927-3.472,11.181-10.408c0.837-22.416,4.313-46.962,1.421-69.757C459.075,89.996,451.806,89.836,444.535,89.718"/>
<path fill="#9F1D1F" d="M454.324,70.098c-6.42,0-13.145,5.297-11.101,13.419c0.516,2.037,0.947,4.104,1.311,6.201
	c7.271,0.119,14.541,0.279,21.81,0.476c-0.535-4.205-1.284-8.354-2.309-12.415C462.688,72.419,458.572,70.098,454.324,70.098"/>
<path fill="#E31077" d="M509.163,70.142c8.287,0.361,16.572,0.75,24.854,1.163c13.624,0.681,13.875,21.601,0.646,21.601
	c-0.211,0-0.427-0.007-0.646-0.017c-14.77-0.738-29.541-1.402-44.316-1.946c-0.254,7.892,0.939,16.503,1.098,22.917
	c0.446,17.708,0.889,35.409,1.333,53.117c0.174,6.937,5.666,10.417,11.066,10.417c5.393,0,10.688-3.465,10.515-10.417
	c-0.312-12.374-0.624-24.746-0.932-37.121c8.056,0.809,11.667,2.207,17.228,9.9c5.256,7.267,7.794,17.979,10.728,26.438
	c4.809,13.908,8.66,28.126,13.568,41.995c0.119,0.341,0.241,0.678,0.362,1.019c0.749-1.598,1.505-3.19,2.267-4.784
	c1.806-3.766,4.854-5.304,8.055-5.304c2.74,0,5.594,1.127,7.874,2.959c1.091,0.004,2.183,0.008,3.273,0.012
	c-3.812-9.743-7.405-19.616-10.646-29.684c-5.337-16.594-10.796-34.99-20.165-49.916c4.513-2.872,8.771-7.051,13.104-13.202
	c9.577-13.599,10.598-28.218-7.401-35.049c-12.131-4.605-27.517-3.647-40.314-4.048C510.188,70.174,509.67,70.159,509.163,70.142
	 M512.576,92.816c1.009,0,2.426-0.238,4.254-0.718c2.491,0.74,5.292,0.896,8.146,0.896c1.032,0,2.073-0.022,3.106-0.042
	c1.035-0.021,2.068-0.038,3.085-0.038c1.374,0,2.717,0.036,4.005,0.159c9.921,0.962,10.209-1.61,3.916,6.116
	c-7.716,9.478-15.854,8.398-26.893,8.729c-0.091-3.399-0.167-6.798-0.202-10.195c-0.049-1.648-0.072-3.297-0.059-4.947
	C512.126,92.805,512.34,92.816,512.576,92.816 M584.971,223.682c-0.329,0-0.662,0-0.992,0c-0.062,0-0.125,0-0.188,0
	c10.045,22.885,20.843,45.44,30.555,68.478C605.007,268.941,594.638,246.48,584.971,223.682 M566.016,236.282
	c-0.057,0.134-0.112,0.267-0.172,0.399c4.529,10.162,9.33,20.211,14.042,30.295c0.008,0,0.021,0.004,0.029,0.004
	C575.277,256.748,570.59,246.542,566.016,236.282 M593.537,297.898L593.537,297.898c2.019,5.018,6.49,7.193,10.85,7.193
	c2.206,0,4.382-0.559,6.196-1.586c-1.783,0.973-3.914,1.5-6.077,1.5C600.139,305.007,595.628,302.857,593.537,297.898"/>
<path fill="#BB182A" d="M506.562,70.099c-6.198,0-10.854,1.023-14.241,7.908c-1.779,3.61-2.466,8.14-2.619,12.936
	c14.776,0.543,29.547,1.208,44.317,1.946c0.219,0.01,0.435,0.016,0.646,0.016c13.229,0,12.979-20.92-0.646-21.6
	c-8.283-0.413-16.568-0.803-24.855-1.163C508.27,70.117,507.399,70.099,506.562,70.099"/>
<path fill="#CB1E59" d="M583.281,68.29c-2.997,1.578-5.128,4.616-4.921,9.128c1.327,28.811,1.905,57.628,1.733,86.473
	c-0.037,5.845,4.971,10.77,10.788,10.793c17.913,0.059,35.826,0.125,53.735,0.191h0.051c13.838,0,13.84-21.534-0.051-21.581
	c-14.302-0.051-28.607-0.105-42.915-0.156c-0.004-7.656-0.06-15.308-0.17-22.963c-3.271-0.14-6.542-0.383-9.816-0.727
	c-5.817-0.612-10.788-4.45-10.788-10.793c0-5.141,4.527-10.834,9.973-10.834c0.271,0,0.543,0.014,0.815,0.044
	c3.126,0.329,6.248,0.563,9.368,0.709c-0.185-6.807-0.413-13.609-0.682-20.414c-1.34-0.01-2.681-0.014-4.021-0.014
	c-2.443,0-4.891,0.016-7.336,0.054c-0.066,0-0.133,0-0.199,0C577.423,88.2,575.589,73.361,583.281,68.29"/>
<path fill="#CB1E59" d="M624.327,107.976c-0.255,0-0.509,0.013-0.769,0.036c-5.068,0.487-10.125,0.73-15.179,0.73
	c-2.433,0-4.865-0.057-7.296-0.168c0.193,7.199,0.346,14.401,0.448,21.602c2.272,0.098,4.549,0.148,6.819,0.148
	c5.065,0,10.127-0.244,15.206-0.732c5.803-0.557,10.789-4.561,10.789-10.791C634.349,113.636,629.823,107.976,624.327,107.976"/>
<path fill="#B21A3C" d="M590.9,107.821c-5.444,0-9.973,5.694-9.973,10.834c0,6.341,4.971,10.18,10.788,10.792
	c3.274,0.344,6.547,0.587,9.816,0.729c-0.104-7.203-0.255-14.405-0.448-21.604c-3.12-0.145-6.242-0.381-9.368-0.709
	C591.443,107.834,591.171,107.821,590.9,107.821"/>
<path fill="#CB1E59" d="M596.436,66.562c-2.464,0-4.924,0.019-7.389,0.054c-2.303,0.034-4.226,0.658-5.766,1.674
	c1.617-0.851,3.481-1.273,5.371-1.273c5.398,0,10.973,3.475,11.293,10.402c0.164,3.58,0.316,7.162,0.458,10.742
	c15.467,0.113,30.921,0.843,46.372,1.574c7.96,0.377,15.922,0.754,23.887,1.046c5.944-13.761,22.893-19.477,39.343-19.758
	c-1.448-0.842-3.214-1.335-5.302-1.337c-0.066,0-0.13,0.002-0.198,0.002c-2.472,0.038-4.943,0.054-7.412,0.054
	c-16.787,0-33.552-0.793-50.316-1.587C630.003,67.359,613.229,66.562,596.436,66.562"/>
<path fill="#B21A3C" d="M588.65,67.016c-1.888,0-3.754,0.424-5.369,1.275c-7.692,5.07-5.858,19.911,5.567,19.911
	c0.064,0,0.132,0,0.197-0.002c2.445-0.037,4.89-0.053,7.336-0.053c1.341,0,2.681,0.004,4.021,0.015
	c-0.144-3.58-0.296-7.164-0.46-10.743C599.625,70.494,594.054,67.016,588.65,67.016"/>
<path fill="#813489" d="M711.299,71.011c-0.431,0-0.863,0.004-1.296,0.012c8.062,4.68,6.205,20.071-5.498,20.245
	c-2.472,0.038-4.942,0.054-7.414,0.054c-8.814,0-17.621-0.218-26.431-0.541c-2.146,4.972-2.855,10.994-1.586,18.188
	c2.222,12.604,11.969,20.128,23.736,23.303c8.161,2.203,16.819,1.4,23.768,6.67c12.898,9.79-1.259,19.209-13.253,19.209
	c-5.369,0-10.302-1.887-12.183-6.474c-2.052-4.997-6.544-7.162-10.906-7.164c-6.701,0-13.103,5.106-9.905,12.897
	c6.619,16.136,19.64,21.389,35.335,21.389c2.583,0,5.239-0.145,7.952-0.402c14.937-1.429,28.418-7.505,30.688-23.934
	c2.02-14.605-6.136-29.796-19.177-36.516c-7.759-3.999-16.807-2.666-24.464-5.963c-7.96-3.427-10.776-11.943-3.247-17.725
	c3.017-2.312,6.637-3.125,10.408-3.125c5.518,0,11.362,1.733,16.135,3.043c1.082,0.296,2.113,0.432,3.09,0.432
	c11.123,0,14.962-17.86,2.644-21.241C724.166,71.851,717.793,71.011,711.299,71.011"/>
<path fill="#74275B" d="M710.003,71.022c-16.448,0.283-33.396,5.999-39.343,19.759c8.81,0.322,17.615,0.541,26.431,0.541
	c2.472,0,4.942-0.017,7.414-0.055C716.208,91.093,718.062,75.705,710.003,71.022"/>
<path fill="#28295D" d="M101.542,202.218c-3.898,0-7.774,0.224-11.556,0.611c-4.173,0.431-7.085,2.736-8.729,5.699
	c-3.099,1.573-5.406,4.627-5.427,9.16c-0.081,16.896-0.163,33.778-0.247,50.67c-0.044,9.7-4.006,28.052,3.83,35.874
	c3.639,3.633,9.663,4.67,15.85,4.67c5.959,0,12.067-0.963,16.351-1.488c11.41-1.4,22.716-5.234,31.256-13.211
	c16.133-15.072,20.786-47.315,10.418-66.646C142.937,208.254,121.958,202.218,101.542,202.218 M97.382,223.896
	c1.039-0.039,2.077-0.055,3.114-0.055c18.952,0,37.371,6.162,36.189,29.774c-0.591,11.807-3.944,23.616-15.238,29.051
	c-5.716,2.752-14.589,4.571-22.439,4.571c-0.922,0-1.83-0.022-2.716-0.073c-0.988-10.154,0.888-21.906,0.932-31.474
	C97.276,245.093,97.329,234.498,97.382,223.896"/>
<path fill="#2077BD" d="M192.364,169.344c-5.7,2.881-11.985,4.494-18.393,4.494c-1.163,0-2.329-0.055-3.496-0.161
	c-0.828,9.229-2.8,18.164-5.837,27.058c-2.719,7.951,3.803,13.161,10.38,13.161c4.317,0,8.658-2.243,10.429-7.43
	C189.555,194.447,191.803,182.008,192.364,169.344"/>
<path fill="#466646" d="M181.923,156.022c-5.396,0-10.874,3.473-11.038,10.417c-0.06,2.435-0.195,4.846-0.409,7.233
	c1.167,0.11,2.333,0.161,3.496,0.161c6.408,0,12.691-1.609,18.394-4.494c0.042-0.963,0.075-1.934,0.1-2.9
	C192.627,159.495,187.316,156.022,181.923,156.022"/>
<path fill="#39A1DB" d="M203.254,203.667c-4.642,0-9.308,2.72-10.534,7.758c-7.171,29.36-16.152,58.084-26.981,86.301
	c-3.012,7.854,3.431,13.008,10.087,13.008c4.343,0,8.775-2.195,10.725-7.273c1.871-4.869,3.682-9.75,5.441-14.654
	c-0.651,0.094-1.305,0.184-1.957,0.27c-0.763,0.105-1.528,0.156-2.285,0.156c-4.947,0-9.555-2.27-10.985-7.691
	c-1.341-5.084,1.719-12.482,7.538-13.271c5.105-0.688,10.26-1.53,15.435-2.243c1.582-4.921,3.108-9.855,4.58-14.812
	c1.065,3.841,2.222,7.625,3.64,11.259c0.32,0.825,0.635,1.647,0.943,2.479c3.293-0.299,6.588-0.481,9.879-0.481
	c2.031,0,4.061,0.065,6.085,0.223c3.525,0.278,6.153,1.892,7.88,4.13c-2.042-6.017-4.139-12.021-6.347-18.05
	c-5.123-13.972-6.704-28.796-13.959-41.929C210.494,205.326,206.882,203.667,203.254,203.667 M235.227,276.199
	c0.042,5.168-3.075,10.115-9.378,10.115c-0.32,0-0.647-0.012-0.983-0.039c-1.924-0.148-3.846-0.215-5.766-0.215
	c-1.079,0-2.159,0.02-3.235,0.059c2.205,7.18,4.406,14.354,7.043,21.408c4.397,11.771,11.25,21.852,18.209,32.217
	c9.908,14.766,16.485,30.248,22.387,46.994c1.616,4.584,5.253,6.857,9.082,7.305c-4.452-0.9-8.284-4.293-8.216-10.178
	c0.182-15.717,0.362-31.434,0.545-47.146c-0.153-0.25-0.304-0.498-0.457-0.748c-8.244-13.34-17.799-24.975-22.764-40.111
	C239.53,289.262,237.397,282.721,235.227,276.199"/>
<path fill="#39A1DB" d="M208.901,264.949c-3.059,0.277-6.116,0.653-9.164,1.076c-2.451,7.635-5.032,15.229-7.744,22.779
	c7.929-1.108,15.881-2.396,23.871-2.686C213.685,279.029,211.504,271.937,208.901,264.949 M232.746,268.82
	c0.836,2.458,1.66,4.917,2.481,7.379C235.205,273.591,234.377,270.931,232.746,268.82"/>
<path fill="#007CC3" d="M218.78,264.468c-3.291,0-6.586,0.184-9.881,0.48c2.606,6.987,4.786,14.08,6.965,21.17
	c1.076-0.039,2.155-0.059,3.233-0.059c1.92,0,3.842,0.066,5.768,0.215c0.334,0.027,0.664,0.039,0.983,0.039
	c6.304,0,9.42-4.947,9.378-10.115c-0.822-2.462-1.648-4.921-2.481-7.379c-1.728-2.238-4.358-3.852-7.881-4.13
	C222.839,264.535,220.809,264.468,218.78,264.468 M199.738,266.025c-5.175,0.713-10.33,1.551-15.437,2.243
	c-5.818,0.787-8.876,8.187-7.536,13.271c1.429,5.422,6.038,7.691,10.985,7.691c0.755,0,1.521-0.051,2.285-0.156
	c0.65-0.086,1.304-0.176,1.958-0.27C194.705,281.253,197.287,273.66,199.738,266.025"/>
<path fill="#18A298" d="M332.124,78.727c-0.605,0-1.208,0.044-1.804,0.13c0.363-0.032,0.734-0.05,1.103-0.05
	c4.493,0,9.262,2.475,11.276,7.208C341.221,81.16,336.642,78.727,332.124,78.727 M321.608,89.145c0.494,20,0.894,40.014,1.15,60.029
	c0.012,0,0.028,0.002,0.042,0.002C322.65,129.18,322.325,109.175,321.608,89.145 M344.428,156.708
	c0.123,22.355,0.062,44.704,0.119,67.079C344.734,201.432,344.674,179.063,344.428,156.708 M274.58,206.172
	c-6.269,0-11.699,6.439-10.68,13.732c3.83,27.48,1.716,55.928,1.396,83.584c-0.126,11.078-0.254,22.152-0.382,33.227
	c8.448,13.877,14.02,29.02,19.401,44.285c2.795,7.943-3.7,13.129-10.296,13.129c-0.479,0-0.958-0.031-1.435-0.086
	c0.806,0.164,1.631,0.248,2.457,0.248c5.396,0,10.828-3.473,10.908-10.422c0.492-42.586,4.011-86.797,2.211-129.955
	c1.949,2.947,3.954,5.853,6.099,8.635c8.926,11.604,22.579,21.522,28.773,34.742c1.777,3.797,4.952,5.395,8.264,5.395
	c5.622,0,11.632-4.604,11.845-10.844c0.493-14.522,0.854-29.062,1.099-43.596c-1.348,4.808-5.811,7.207-10.296,7.207
	c-5.397,0-10.825-3.479-10.873-10.422c-0.055-7.163-0.084-14.331-0.104-21.494c-0.104,12.718-0.292,25.433-0.57,38.147
	c-4.637-4.784-9.256-9.563-13.106-14.786c-9.25-12.546-16.003-26.591-27.361-37.493C279.57,207.143,277.011,206.172,274.58,206.172"
	/>
<path fill="#51773F" d="M322.758,149.174c0.034,2.566,0.064,5.138,0.092,7.702c-0.014-2.568-0.03-5.132-0.05-7.7
	C322.788,149.174,322.771,149.174,322.758,149.174"/>
<path fill="#5F3F35" d="M331.423,78.807c-0.371,0-0.74,0.017-1.102,0.051c-4.706,0.691-8.866,4.114-8.713,10.288
	c0.717,20.031,1.042,40.035,1.193,60.029c3.499,0.098,6.997,0.216,10.498,0.358c13.68,0.557,13.885,21.592,0.533,21.592
	c-0.174,0-0.353-0.004-0.533-0.012c-3.442-0.141-6.883-0.259-10.322-0.354c0.13,17.592,0.136,35.185-0.011,52.776
	c0.019,7.159,0.049,14.327,0.103,21.495c0.048,6.944,5.473,10.42,10.873,10.42c4.486,0,8.95-2.398,10.296-7.207
	c0.138-8.152,0.24-16.304,0.308-24.458c-0.058-22.379,0.004-44.724-0.119-67.079c-0.248-22.532-0.683-45.053-1.24-67.562
	c-0.028-1.134-0.199-2.179-0.489-3.129C340.685,81.283,335.917,78.807,331.423,78.807"/>
<path fill="#603A2F" d="M322.8,149.175c0.02,2.569,0.036,5.137,0.05,7.705c0.05,4.627,0.092,9.25,0.126,13.881
	c3.44,0.094,6.881,0.212,10.322,0.354c0.181,0.008,0.359,0.012,0.533,0.012c13.353,0,13.148-21.034-0.533-21.591
	C329.796,149.392,326.3,149.272,322.8,149.175"/>
<path fill="#00838C" d="M264.914,336.714c-0.182,15.717-0.363,31.436-0.545,47.15c-0.068,5.885,3.764,9.277,8.216,10.178
	c0.477,0.059,0.956,0.082,1.435,0.082c6.596,0,13.089-5.182,10.296-13.121C278.934,365.734,273.361,350.595,264.914,336.714"/>
<path fill="#138B45" d="M382.104,230.07c-6.288,0-13.242,5.355-11.819,13.532c3.408,19.667,2.102,39.592,0.777,59.392
	c-0.463,6.926,4.692,10.375,10.082,10.375c5.399,0,11.037-3.461,11.498-10.375c1.467-21.916,2.224-43.389-1.551-65.125
	C390.144,232.427,386.271,230.07,382.104,230.07"/>
<path fill="#138B45" d="M381.333,200.97c-13.887,0-13.91,21.585,0,21.585C395.223,222.555,395.242,200.97,381.333,200.97"/>
<path fill="#64B345" d="M499.451,195.947c-3.386,0-6.718,1.593-8.708,5.269c-10.326,19.061-20.383,38.171-29.138,57.944
	c-11.811-12.957-21.875-27.085-30.433-42.693c-2.01-3.668-5.341-5.261-8.721-5.261c-5.534,0-11.195,4.274-11.384,10.71
	c-0.806,27.199-0.625,54.369,0.539,81.556c0.296,6.93,5.857,10.404,11.258,10.404c5.389,0,10.622-3.461,10.326-10.404
	c-0.658-15.307-1-30.604-1.031-45.909c7.667,10.058,16.135,19.489,25.411,28.321c2.265,2.16,4.842,3.119,7.352,3.119
	c4.501,0,8.788-3.084,10.685-7.875c4.485-11.356,9.578-22.416,15-33.317c0.474,10.558,1.078,21.11,1.885,31.657
	c0.086,1.132,0.311,2.168,0.65,3.115c-1.217-6,2.182-13.398,10.14-13.903c3.331-0.212,6.667-0.407,9.998-0.585
	c-1.303-20.456-1.945-40.933-2.428-61.43C510.697,200.237,505.002,195.947,499.451,195.947"/>
<path fill="#25A97B" d="M562.018,266.8c-2.666,0-5.33,0.013-7.993,0.039c-2.512,7.147-4.83,14.367-6.93,21.668
	c4.973-0.082,9.943-0.121,14.915-0.121c9.209,0,18.418,0.137,27.631,0.423c-2.86-6.585-5.794-13.138-8.751-19.675
	c-0.335-0.721-0.67-1.438-1.004-2.157C573.93,266.859,567.972,266.8,562.018,266.8"/>
<path fill="#63314A" d="M579.886,266.98c0.334,0.717,0.669,1.434,1.004,2.152c-0.324-0.717-0.649-1.437-0.977-2.152
	C579.905,266.98,579.896,266.98,579.886,266.98"/>
<path fill="#25A97B" d="M531.072,267.326c-5.935,0.202-11.858,0.457-17.791,0.773c0.24,3.79,0.505,7.579,0.793,11.367
	c0.53,6.926-4.582,10.363-9.967,10.363c-4.519,0-9.23-2.425-10.966-7.246c0.853,4.191,3.952,7.699,9.322,7.699
	c0.268,0,0.541-0.008,0.816-0.023c7.078-0.449,14.152-0.821,21.229-1.107C526.481,281.8,528.677,274.527,531.072,267.326"/>
<path fill="#009843" d="M513.281,268.096c-3.333,0.177-6.667,0.372-10,0.584c-7.956,0.505-11.356,7.903-10.14,13.907
	c1.734,4.818,6.447,7.242,10.968,7.242c5.383,0,10.492-3.44,9.965-10.361C513.786,275.679,513.52,271.89,513.281,268.096"/>
<path fill="#25A97B" d="M554.668,209.206c-8.916,18.974-17.003,38.28-23.596,58.12c7.648-0.26,15.301-0.424,22.949-0.49
	c3.577-10.182,7.546-20.223,11.821-30.153C561.817,227.651,558.007,218.526,554.668,209.206 M589.641,288.809
	c1.315,3.021,2.614,6.052,3.896,9.089c-1.225-3.045-2.489-6.07-3.787-9.085C589.715,288.809,589.676,288.809,589.641,288.809
	 M614.345,292.16L614.345,292.16c2.106,5.232-0.078,9.262-3.76,11.348C614.343,301.453,616.562,297.419,614.345,292.16"/>
<path fill="#63314A" d="M564.988,199.118c-3.202,0-6.247,1.538-8.055,5.304c-0.76,1.594-1.518,3.187-2.267,4.784
	c3.339,9.32,7.149,18.445,11.176,27.479c0.058-0.137,0.115-0.27,0.174-0.403c4.574,10.26,9.261,20.465,13.897,30.698
	c5.561,0.109,11.123,0.273,16.684,0.484c13.699,0.524,13.89,21.594,0.505,21.594c-0.166,0-0.335-0.004-0.505-0.012
	c-2.281-0.086-4.563-0.168-6.849-0.238c1.298,3.014,2.562,6.044,3.785,9.088c2.093,4.961,6.602,7.109,10.971,7.109
	c2.165,0,4.294-0.527,6.079-1.5c3.682-2.086,5.866-6.113,3.758-11.348c-9.712-23.037-20.508-45.593-30.553-68.481
	c-5.261,0-10.522-0.012-15.781-0.047c-13.879-0.09-13.895-21.581-0.088-21.581c0.027,0,0.057,0,0.088,0
	c1.616,0.012,3.235,0.02,4.854,0.027C570.582,200.245,567.729,199.118,564.988,199.118"/>
<path fill="#25A97B" d="M547.095,288.507c-7.526,0.121-15.057,0.336-22.583,0.642c-0.729,2.729-1.429,5.465-2.094,8.209
	c-1.967,8.122,4.789,13.442,11.191,13.442c4.232,0,8.313-2.326,9.617-7.705C544.416,298.195,545.705,293.33,547.095,288.507"/>
<path fill="#009451" d="M554.023,266.835c-7.65,0.07-15.305,0.23-22.951,0.49c-2.396,7.201-4.591,14.475-6.562,21.826
	c7.524-0.309,15.057-0.523,22.583-0.648C549.193,281.203,551.513,273.987,554.023,266.835 M580.89,269.134
	c2.957,6.541,5.891,13.09,8.751,19.671c0.035,0.004,0.074,0.004,0.109,0.004C586.91,282.201,583.925,275.66,580.89,269.134"/>
<path fill="#3D3439" d="M579.915,266.98c0.326,0.717,0.649,1.438,0.975,2.152c3.035,6.525,6.021,13.066,8.862,19.676
	c2.282,0.07,4.562,0.148,6.847,0.238c0.17,0.004,0.341,0.008,0.505,0.008c13.385,0,13.196-21.064-0.505-21.59
	C591.038,267.251,585.474,267.089,579.915,266.98"/>
<path fill="#F4952B" d="M697.946,201.334c-19.034,0-38.067,0.188-57.105,0.383c-18.954,0.192-37.908,0.384-56.862,0.384
	c-2.614,0-5.227-0.004-7.84-0.012c2.839,7.254,5.801,14.437,8.834,21.593c16.904-0.008,33.811-0.164,50.717-0.333
	c-0.216-3.487-0.468-6.976-0.752-10.459c-0.564-6.917,4.523-10.354,9.91-10.354c5.401,0,11.105,3.469,11.665,10.354
	c0.282,3.413,0.528,6.83,0.74,10.244c13.478-0.121,26.955-0.22,40.433-0.22c5.332,0,10.66,0.016,15.991,0.051h0.084
	c13.806,0,13.795-21.494-0.084-21.584C708.434,201.346,703.188,201.334,697.946,201.334"/>
<path fill="#E11723" d="M572.862,202.077c1.651,1.327,3.007,3.022,3.796,4.925c2.314,5.586,4.701,11.141,7.132,16.68
	c0.062,0,0.125,0,0.188,0c0.329,0,0.662,0,0.993,0c-3.033-7.156-5.995-14.339-8.834-21.593
	C575.047,202.085,573.953,202.081,572.862,202.077"/>
<path fill="#623130" d="M567.921,202.05c-13.805,0-13.791,21.495,0.086,21.581c5.261,0.031,10.522,0.047,15.783,0.051
	c-2.431-5.539-4.816-11.094-7.132-16.68c-0.787-1.902-2.145-3.598-3.796-4.925c-1.618-0.008-3.237-0.016-4.855-0.027
	C567.979,202.05,567.948,202.05,567.921,202.05"/>
<path fill="#F4952B" d="M657.253,223.138c-5.496,0.047-10.996,0.105-16.492,0.16c-1.69,0.02-3.382,0.035-5.07,0.051
	c0.749,12.155,1.053,24.312,0.708,36.504c-0.379,13.436-2.694,27.029-0.933,40.396c0.898,6.809,6.784,10.246,12.196,10.246
	c5.379,0,10.291-3.396,9.387-10.246c-1.762-13.349,0.571-26.985,0.933-40.396C658.308,247.591,658.01,235.362,657.253,223.138"/>
<path fill="#EB5D13" d="M644.846,202.535c-5.383,0-10.474,3.438-9.908,10.354c0.284,3.487,0.536,6.972,0.755,10.459
	c1.688-0.016,3.378-0.031,5.066-0.051c5.498-0.055,10.996-0.113,16.496-0.16c-0.214-3.418-0.462-6.831-0.74-10.248
	C655.953,206.004,650.251,202.535,644.846,202.535"/>
<path fill="#E73E28" d="M713.675,223.091c13.888,0,13.91-21.581,0-21.581C699.79,201.51,699.767,223.091,713.675,223.091"/>
<path fill="#E73E28" d="M697.858,241.994c2.038,18.652,2.852,37.317,2.429,56.076c-0.311,13.896,21.176,13.889,21.484,0
	c0.422-18.759-0.388-37.424-2.431-56.076C717.846,228.336,696.346,228.184,697.858,241.994"/>
<path fill="#D32255" d="M782.068,201.498c-13.615,0-26.846,6.643-34.489,19.745c-6.396,10.964-6.067,23.717-5.868,36.025
	c0.211,12.75,0.094,26.799,8.064,37.462c7.031,9.406,18.543,14.441,29.912,14.441c9.911,0,19.718-3.826,26.36-11.904
	c16.646-20.23,11.355-55.916,6.33-79.316c-0.354-1.652-0.974-3.019-1.781-4.118c-0.768-1.695-2.034-3.269-3.89-4.557
	C799.186,204.078,790.553,201.498,782.068,201.498 M778.457,288.835c-3.067,0-6.521-1.612-10.343-5.547
	c-7.157-7.383-6.225-30.693-4.763-40.354c1.836-12.057,9.287-19.796,18.874-19.796c3.069,0,6.355,0.795,9.749,2.489
	c2.478,12.163,3.67,24.431,2.816,36.859C794.129,272.108,788.329,288.835,778.457,288.835"/>
<path fill="#BD1F2D" d="M903.986,142.483c-5.391,0-10.661,3.463-10.435,10.412c1.111,34.331,0.865,68.701,1.296,103.051
	c-11.523-15.008-23.895-29.328-37.146-42.974c-1.977-2.032-4.664-2.956-7.379-2.956c-5.732,0-11.579,4.122-11.041,10.585
	c2.189,26.281,1.928,52.35-0.783,78.584c-0.714,6.887,4.309,10.314,9.694,10.314c5.405,0,11.177-3.451,11.885-10.314
	c1.701-16.438,2.437-32.807,2.212-49.209c12.528,14.617,24.109,29.971,34.773,46.141c2.229,3.391,5.934,5,9.561,5
	c5.471,0,10.762-3.668,10.54-10.439c-1.485-45.91-0.54-91.875-2.031-137.781C914.908,145.961,909.389,142.483,903.986,142.483"/>
<path fill="#020203" d="M90.083,322.669c-3.303,0-6.636,0.176-9.941,0.479c-0.835,0.076-1.597,0.262-2.285,0.535
	c-2.859,0.76-5.223,3.062-5.168,6.916c0.2,14.6,0.786,29.186,1.314,43.777c0.359,9.814-2.655,27.15,1.616,36.057
	c3.383,7.047,10.717,6.061,17.651,6.459c3.022,0.174,6.141,0.367,9.243,0.367c7.201,0,14.327-1.066,20.037-5.996
	c14.244-12.283,13.621-44.652,9.714-61.191C127.187,328.568,109.179,322.669,90.083,322.669 M87.712,337.427
	c1.34-0.078,2.66-0.121,3.964-0.121c6.124,0,11.894,1.041,17.622,4.926c9.793,6.631,9.793,16.641,9.623,27.576
	c-0.161,10.076,0.16,26.525-10.202,32.146c-1.676,0.912-4.706,1.256-8.11,1.256c-3.84,0-8.155-0.438-11.524-1.006
	c-1.635-10.416-0.014-23.467-0.389-33.492C88.312,358.283,87.934,347.855,87.712,337.427"/>
<path fill="#020203" d="M161.252,323.22c-2.917,0.73-5.357,3.043-5.322,6.953c0.232,25.107,0.468,50.215,0.699,75.328
	c0.041,4.18,3.394,7.25,7.458,7.453c15.224,0.773,30.446,1.549,45.675,2.324c0.152,0.004,0.303,0.008,0.451,0.008
	c9.133,0,8.957-14.439-0.451-14.918c-12.765-0.646-25.527-1.295-38.289-1.945c-0.072-7.785-0.145-15.576-0.219-23.361
	c-1.14-0.078-2.28-0.121-3.423-0.121c-1.339,0-2.681,0.059-4.022,0.195c-0.301,0.031-0.591,0.047-0.874,0.047
	c-8.658,0-8.279-14.021,0.874-14.953c1.355-0.139,2.706-0.199,4.052-0.199c1.086,0,2.171,0.043,3.255,0.111
	c-0.072-7.689-0.144-15.379-0.216-23.07c-2.505,0.117-5.01,0.293-7.518,0.553c-0.303,0.031-0.599,0.047-0.886,0.047
	C154.584,337.669,154.237,325.929,161.252,323.22"/>
<path fill="#020203" d="M171.117,360.142c0.046,4.973,0.092,9.947,0.138,14.92c8.388,0.578,16.742,3.033,25.097,3.59
	c0.201,0.012,0.397,0.02,0.589,0.02c8.982,0,8.751-14.307-0.589-14.926C187.931,363.185,179.562,360.699,171.117,360.142"/>
<path d="M167.862,360.029c-1.347,0-2.697,0.062-4.052,0.199c-9.153,0.934-9.534,14.949-0.874,14.949
	c0.283,0,0.573-0.012,0.874-0.043c1.341-0.137,2.682-0.193,4.023-0.193c1.14,0,2.282,0.043,3.423,0.119
	c-0.046-4.975-0.093-9.945-0.139-14.918C170.033,360.068,168.948,360.029,167.862,360.029"/>
<path fill="#020203" d="M179.016,321.992c-5.209,0-10.419,0.188-15.631,0.725c-0.774,0.082-1.486,0.254-2.133,0.504
	c0.669-0.164,1.363-0.25,2.057-0.25c3.728,0,7.483,2.404,7.529,7.203c0.021,2.297,0.042,4.6,0.064,6.896
	c2.701-0.121,5.405-0.176,8.107-0.176c8.508,0,17.018,0.5,25.542,0.787c0.102,0.004,0.204,0.008,0.302,0.008
	c9.291,0,9.18-14.602-0.302-14.914C196.025,322.494,187.52,321.992,179.016,321.992"/>
<path d="M163.309,322.97c-0.694,0-1.387,0.086-2.056,0.25c-7.015,2.709-6.668,14.449,1.244,14.449c0.287,0,0.583-0.012,0.889-0.047
	c2.505-0.258,5.013-0.434,7.518-0.553c-0.022-2.297-0.044-4.6-0.064-6.9C170.792,325.375,167.036,322.97,163.309,322.97"/>
<path fill="#020203" d="M320.372,329.226c-1.907,0-3.749,0.104-5.493,0.307c-0.814,0.094-1.559,0.289-2.235,0.57
	c-2.821,0.795-5.172,3.09-5.217,6.879c-0.186,15.721-0.739,31.422-1.19,47.135c-0.241,8.201-4.471,26.92,2.913,33.281
	c4.154,3.578,12.016,4.406,19.207,4.406c3.998,0,7.786-0.254,10.621-0.438c9.923-0.646,21.425-3.719,28.031-11.742
	c9.87-11.982,2.301-26.334-10.042-32.252c-0.542-0.26-1.084-0.506-1.631-0.74c6.156-3.617,10.26-8.938,9.922-16.938
	C364.381,339.033,339.169,329.226,320.372,329.226 M321.579,369.828c0.257-8.412,0.487-16.82,0.64-25.24
	c12.105,1.115,32.021,5.922,28.211,16.57C348.364,366.927,331.805,368.884,321.579,369.828 M320.188,405.712
	c-0.734-6.135-0.23-13.172,0.355-19.895c8.097,0.596,16.203,0.654,24.126,2.939c9.076,2.619,16.758,7.719,4.562,15.17
	c-3.652,2.23-9.723,3.162-15.938,3.162C328.696,407.089,324.021,406.578,320.188,405.712"/>
<path fill="#020203" d="M431.01,325.052c-0.111,0-0.223,0.004-0.334,0.008c-26.127,0.947-45.126,21.105-47.235,46.973
	c-1.731,21.229,8.971,51.879,33.447,51.879c1.876,0,3.831-0.18,5.869-0.561c25.499-4.725,29.165-35.902,30.124-56.801
	c0.763-16.5-0.035-36.6-19.114-40.992C432.964,325.238,432.046,325.052,431.01,325.052 M417.158,408.835
	c-4.496,0-9.29-2.678-13.791-9.277c-3.979-5.836-5.268-15.219-5.278-21.887c-0.025-19.059,11.779-36.506,31.796-37.668
	c15.447,5.02,7.379,46.109,3.286,55.328C429.761,403.011,423.785,408.835,417.158,408.835"/>
<path fill="#020203" d="M475.302,328.103c-3.014,0.656-5.567,2.986-5.492,7.004c0.464,23.951,1.645,47.879,2.104,71.83
	c0.092,4.791,3.87,7.195,7.6,7.195c3.725,0,7.397-2.395,7.307-7.195c-0.178-9.168-0.459-18.326-0.765-27.486
	c-1.551-0.027-3.049-0.043-4.468-0.043c-1.165,0-2.278,0.012-3.328,0.043c-0.101,0.004-0.199,0.008-0.297,0.008
	c-9.312,0-9.174-14.605,0.297-14.914c2.427-0.078,4.854-0.148,7.279-0.219c-0.254-7.549-0.495-15.096-0.677-22.646
	c-2.754,0.297-5.348,0.635-7.601,0.881c-0.318,0.031-0.627,0.047-0.927,0.047C468.408,342.605,468.135,330.716,475.302,328.103"/>
<path fill="#020203" d="M496.604,326.031c-6.476,0-13.054,0.939-19.343,1.621c-0.706,0.074-1.358,0.23-1.958,0.445
	c0.591-0.125,1.2-0.191,1.812-0.191c3.729,0,7.508,2.404,7.602,7.195c0.042,2.191,0.09,4.385,0.146,6.576
	c3.32-0.355,6.878-0.658,10.354-0.658c11.042,0,21.243,3.012,20.426,16.678c-0.333,5.602-5.465,6.359-10.675,6.359
	c-0.969,0-1.938-0.021-2.879-0.051c-0.957-0.021-1.885-0.051-2.756-0.051c-0.303,0-0.595,0.004-0.883,0.012
	c-4.3,0.121-8.606,0.234-12.91,0.357c0.17,5.041,0.347,10.082,0.515,15.121c0.556,0.012,1.116,0.02,1.686,0.029
	c2.152,0.035,4.396,0.072,6.674,0.072c0.634,0,1.27-0.004,1.908-0.014c-0.512-0.664-1.021-1.326-1.532-1.988
	c-4.396-5.68,0.546-13.145,5.752-13.145c1.67,0,3.363,0.768,4.788,2.605c2.781,3.594,5.535,7.215,8.25,10.859
	c9.927-2.328,17.421-7.771,16.971-20.172c-0.427-11.678-4.237-21.818-15.002-27.543C509.611,326.994,503.16,326.031,496.604,326.031
	"/>
<path d="M477.115,327.906c-0.611,0-1.222,0.062-1.812,0.195c-7.167,2.615-6.895,14.508,1.032,14.508
	c0.299,0,0.605-0.016,0.926-0.055c2.251-0.242,4.845-0.58,7.601-0.877c-0.056-2.191-0.104-4.385-0.146-6.572
	C484.623,330.31,480.845,327.906,477.115,327.906 M485.539,364.324c-2.427,0.07-4.852,0.145-7.281,0.219
	c-9.469,0.311-9.607,14.91-0.297,14.91c0.1,0,0.196,0,0.297-0.004c1.052-0.031,2.167-0.047,3.331-0.047
	c1.419,0,2.914,0.023,4.465,0.047C485.885,374.408,485.709,369.365,485.539,364.324"/>
<path fill="#020203" d="M513.579,377.873c-5.336,1.252-11.374,1.607-17.258,1.668c8.933,11.648,17.438,23.678,25.335,36.057
	c1.559,2.449,3.84,3.469,6.109,3.469c5.203,0,10.364-5.34,6.76-10.996C527.934,397.738,520.895,387.697,513.579,377.873"/>
<path d="M500.541,364.402c-5.206,0-10.148,7.465-5.752,13.145c0.511,0.662,1.021,1.324,1.532,1.988
	c5.884-0.055,11.922-0.41,17.258-1.666c-2.717-3.646-5.469-7.268-8.25-10.859C503.904,365.169,502.211,364.402,500.541,364.402"/>
<path fill="#020203" d="M553.47,330.076c-1.809,1.143-3.018,3.154-2.826,6.035c1.777,26.588,2.51,53.211,2.605,79.861
	c0.006,1.361,0.312,2.531,0.831,3.506c-1.659-4.262,0.57-10.49,6.626-10.963c2.427-0.188,4.905-0.316,7.404-0.443
	c-0.185-21.225-0.794-42.434-2.037-63.623c-2.574-0.496-5.238-0.793-7.979-0.885C550.444,343.31,548.894,333.751,553.47,330.076"/>
<path fill="#020203" d="M557.798,328.654c-1.793,0-3.235,0.545-4.328,1.422c1.194-0.756,2.646-1.131,4.126-1.131
	c3.732,0,7.637,2.398,7.952,7.166c0.188,2.779,0.36,5.562,0.525,8.338c17.396,3.359,30.59,15.779,33.898,34.25
	c1.937,10.787,0.791,24.633-11.62,27.322c-6.477,1.404-13.437,1.715-20.241,2.051c0.021,2.635,0.039,5.266,0.051,7.9
	c0.016,4.799-3.699,7.197-7.424,7.197c-2.67,0-5.345-1.232-6.657-3.691c0.883,2.264,2.86,3.975,5.942,3.975
	c0.222,0,0.447-0.008,0.684-0.027c13.474-1.053,31.647,0.254,43.334-7.762c10.84-7.43,12.245-21.656,11.28-33.834
	c-2.474-31.141-26.492-52.158-57.227-53.172C557.995,328.658,557.896,328.654,557.798,328.654"/>
<path d="M557.596,328.945c-1.48,0-2.932,0.375-4.126,1.131c-4.575,3.676-3.026,13.234,4.625,13.488
	c2.74,0.092,5.404,0.389,7.979,0.885c-0.165-2.779-0.337-5.559-0.525-8.338C565.231,331.343,561.328,328.945,557.596,328.945
	 M568.11,408.072c-2.499,0.127-4.979,0.256-7.404,0.443c-6.056,0.473-8.285,6.701-6.626,10.963c1.312,2.459,3.989,3.691,6.657,3.691
	c3.725,0,7.438-2.398,7.424-7.197C568.149,413.337,568.132,410.707,568.11,408.072"/>
<path fill="#020203" d="M632.538,329c-1.074,1.178-1.742,2.811-1.699,4.895c0.518,26.123,1.687,52.215,3.504,78.285
	c0.267,3.863,3.094,7.457,7.233,7.457c0.073,0,0.146,0,0.218-0.004c13.407-0.398,26.814-0.6,40.224-0.6
	c1.828,0,3.652,0.004,5.48,0.012h0.035c9.558,0,9.558-14.863-0.035-14.906c-1.826-0.008-3.652-0.012-5.48-0.012
	c-11.096,0-22.188,0.141-33.28,0.41c-0.45-6.963-0.855-13.932-1.217-20.896c-2.57,0.164-5.146,0.32-7.719,0.467
	c-0.171,0.008-0.337,0.012-0.501,0.012c-9.098,0-8.871-14.395,0.501-14.914c2.344-0.133,4.683-0.273,7.022-0.424
	c-0.384-9.133-0.689-18.262-0.916-27.396c-1.111,0.027-2.229,0.043-3.343,0.043c-1.424,0-2.852-0.023-4.277-0.078
	C631.355,341.076,629.434,333.195,632.538,329"/>
<path fill="#020203" d="M673.856,367.037c-0.165,0-0.331,0.004-0.499,0.012c-8.849,0.492-17.688,1.162-26.533,1.734
	c0.209,4.951,0.439,9.902,0.694,14.855c8.615-0.557,17.223-1.207,25.839-1.684C682.729,381.435,682.953,367.037,673.856,367.037"/>
<path d="M646.826,368.779c-2.343,0.152-4.685,0.297-7.024,0.426c-9.374,0.521-9.599,14.914-0.503,14.914
	c0.166,0,0.332-0.004,0.503-0.012c2.573-0.145,5.147-0.301,7.72-0.469C647.265,378.687,647.033,373.734,646.826,368.779"/>
<path fill="#020203" d="M689.472,322.572c-0.161,0-0.32,0.004-0.486,0.012c-15.558,0.846-30.861,3.941-46.44,3.941
	c-1.413,0-2.835-0.027-4.256-0.082c-0.121-0.004-0.236-0.01-0.354-0.01c-2.467,0-4.268,1.039-5.396,2.568
	c1.398-1.537,3.489-2.305,5.598-2.305c3.729,0,7.511,2.402,7.606,7.197c0.047,2.498,0.104,4.99,0.166,7.488
	c14.421-0.387,28.639-3.107,43.076-3.895C698.361,336.976,698.576,322.572,689.472,322.572"/>
<path d="M638.136,326.697c-2.105,0-4.195,0.768-5.598,2.303c-3.104,4.191-1.183,12.08,5.75,12.35
	c1.427,0.057,2.854,0.082,4.276,0.082c1.115,0,2.231-0.016,3.344-0.047c-0.062-2.498-0.117-4.99-0.168-7.488
	C645.646,329.101,641.866,326.697,638.136,326.697"/>
<path fill="#020203" d="M742.574,329.343c-3.307,0-6.87,2.311-8.055,5.477c-9.16,24.494-20.292,47.955-33.328,70.619
	c-3.317,5.766,1.834,11.141,6.904,11.141c2.255,0,4.494-1.061,5.964-3.621c3.2-5.559,6.281-11.168,9.248-16.832
	c-1.501,0.062-3.004,0.125-4.506,0.184c-0.123,0.01-0.244,0.01-0.36,0.01c-9.247,0-9.078-14.535,0.36-14.906
	c4.055-0.166,8.107-0.338,12.161-0.525c3.953-8.229,7.68-16.561,11.184-24.998c3.554,7.918,7.104,15.834,10.657,23.754
	c3.666-0.252,7.332-0.531,10.992-0.842c0.255-0.023,0.503-0.035,0.744-0.035c2.822,0,4.707,1.447,5.664,3.447
	c-7.354-16.389-14.709-32.779-22.064-49.174C746.967,330.423,744.833,329.343,742.574,329.343 M770.346,382.527
	c1.785,4.254-0.421,10.658-6.549,11.18c-1.505,0.125-3.01,0.246-4.516,0.363c2.582,5.756,5.161,11.506,7.74,17.256
	c1.229,2.74,3.34,3.875,5.535,3.875c4.801,0,10.015-5.434,7.336-11.396C776.711,396.712,773.528,389.619,770.346,382.527"/>
<path fill="#020203" d="M752.807,379.642c-7.274,0.5-14.561,0.9-21.843,1.24c-2.463,5.125-5.013,10.201-7.655,15.244
	c11.998-0.502,23.998-1.121,35.972-2.057C757.123,389.263,754.962,384.453,752.807,379.642 M770.205,382.212
	c0.049,0.104,0.094,0.213,0.143,0.314C770.301,382.421,770.256,382.316,770.205,382.212"/>
<path d="M764.541,378.765c-0.243,0-0.489,0.012-0.744,0.035c-3.662,0.311-7.326,0.59-10.992,0.842
	c2.157,4.811,4.318,9.621,6.476,14.434c1.508-0.121,3.013-0.242,4.518-0.369c6.126-0.521,8.334-6.924,6.551-11.18
	c-0.049-0.102-0.096-0.207-0.143-0.312C769.248,380.216,767.363,378.765,764.541,378.765 M730.964,380.886
	c-4.054,0.189-8.106,0.359-12.163,0.525c-9.438,0.371-9.605,14.906-0.361,14.906c0.119,0,0.24,0,0.361-0.01
	c1.504-0.059,3.005-0.121,4.508-0.184C725.951,391.087,728.499,386.007,730.964,380.886"/>
<path fill="#020203" d="M785.674,327.511c-3.725,0-7.503,2.4-7.601,7.195c-0.536,26.398,3.6,73.006,37.103,78.178
	c1.428,0.225,2.771,0.328,4.033,0.328c9.115,0,14.073-5.629,16.279-15.291c4.318-18.945,2.645-40.174,3.331-59.477
	c0.168-4.801-3.474-7.195-7.197-7.195c-3.728,0-7.543,2.4-7.713,7.195c-0.401,11.332-0.793,22.672-1.198,34.01
	c-0.184,5.014,1.15,24.461-3.518,26.043c-0.512,0.172-1.047,0.254-1.596,0.254c-5.792,0-13.232-9.002-15.263-12.381
	c-3.013-5.027-4.666-10.93-6.04-16.562c-2.812-11.523-3.553-23.275-3.312-35.102C793.08,329.912,789.402,327.511,785.674,327.511"/>
<path fill="#020203" d="M907.244,332.357c-1.682,0-3.402,0.729-4.884,2.467c-5.161,6.066-10.432,11.994-15.521,17.986
	c3.21,3.859,6.377,7.756,9.501,11.686c5.408-6.404,11.072-12.68,16.562-19.131C917.607,339.826,912.634,332.357,907.244,332.357
	 M877.271,364.554c-9.957,12.936-18.332,26.756-22.513,43.395c-1.41,5.602,3.243,9.271,7.679,9.271c2.931,0,5.765-1.6,6.693-5.307
	c3.376-13.443,9.872-24.861,17.709-35.486C883.699,372.431,880.51,368.472,877.271,364.554"/>
<path fill="#020203" d="M856.439,321.667c-5.584,0-10.625,7.477-5.594,12.852c9.135,9.76,17.942,19.766,26.428,30.035
	c3.064-3.977,6.276-7.875,9.562-11.744c-8.189-9.844-16.674-19.459-25.448-28.834C859.864,322.347,858.128,321.667,856.439,321.667
	 M896.34,364.496c-3.296,3.906-6.496,7.861-9.501,11.932c8.852,11.25,17.326,22.807,25.421,34.668
	c1.615,2.367,3.913,3.352,6.189,3.352c5.292,0,10.472-5.316,6.682-10.875C915.991,390.183,906.398,377.156,896.34,364.496"/>
<path d="M886.839,352.81c-3.288,3.869-6.502,7.764-9.567,11.748c3.238,3.918,6.429,7.873,9.569,11.869
	c3.005-4.07,6.203-8.023,9.499-11.932C893.216,360.566,890.051,356.671,886.839,352.81"/>
<g>
	<path fill="#BD1F2D" d="M461.731-198.759c-8.437-0.002-14.11,13.787-5.143,20.521c1.498,1.123,2.988,2.33,4.462,3.614
		c5.148-4.86,10.784-9.276,16.819-13.145c-3.394-3.235-6.901-6.219-10.5-8.919C465.444-198.136,463.526-198.759,461.731-198.759
		 M492.306-171.568c-6.094,3.592-11.731,7.837-16.804,12.601c8.711,11.51,15.91,25.395,19.928,39.716
		c8.189,1.234,15.929,3.735,23.208,7.249C515.195-133.316,505.42-154.306,492.306-171.568 M498.879-96.563
		c0.179,12.738-2.904,25.003-10.446,35.406c-3.758,5.187-8.16,9.48-13.044,12.996c6.334,4.941,13.283,8.448,20.629,10.747
		c4.425-4.175,8.414-8.981,11.867-14.479c6.807-10.853,10.51-22.712,11.684-34.91C513.176-91.162,506.273-94.534,498.879-96.563
		 M366.05-43.857c-10.679,0-14.283,17.432-2.338,21.134c5.426,1.684,11.179,3.217,17.158,4.538
		c1.271-7.07,2.935-14.013,5.002-20.742c-5.818-1.307-11.366-2.81-16.486-4.397C368.211-43.688,367.096-43.857,366.05-43.857
		 M454.591-38.235c-9.463,2.772-19.675,3.917-29.983,3.917c-5.832,0-11.693-0.365-17.471-1.01c-2.188,6.713-3.927,13.666-5.271,20.7
		c7.196,0.848,14.53,1.32,21.841,1.32c17.979,0,35.838-2.858,51.314-10.038C467.723-27.146,460.858-32.064,454.591-38.235"/>
	<path fill="#F9AE30" d="M483.704-120.128c-2.88,0-5.803,0.155-8.781,0.476c-8.995,0.96-17.309,2.947-24.97,5.82
		c-1.385,7.583-1.517,15.372-0.184,23.135c7.219-3.667,15.365-6.244,24.528-7.469c2.875-0.385,5.704-0.571,8.466-0.571
		c5.607,0,10.98,0.764,16.118,2.174c-0.104-7.493-1.337-15.152-3.449-22.689C491.618-119.828,487.711-120.128,483.704-120.128
		 M518.639-112.003c1.359,8.422,1.73,16.886,0.932,25.2c16.113,10.986,29.018,28.259,38.562,46.25
		c6.768-2.251,13.367-4.983,19.635-8.053C564.004-74.901,544.16-99.678,518.639-112.003 M427.489-101.661
		c-20.144,14.824-33.782,37.248-41.614,62.732c6.794,1.528,13.955,2.787,21.262,3.601c5.173-15.875,12.873-30.422,23.886-41.589
		C428.572-85.102,427.442-93.41,427.489-101.661 M586.744-29.264c-6.367,3.062-12.951,5.771-19.658,8.061
		c0.789,1.979,1.539,3.938,2.242,5.875c1.85,5.075,6.199,7.272,10.492,7.272c6.551,0,12.965-5.121,10.111-12.953
		C588.938-23.736,587.873-26.497,586.744-29.264 M380.87-18.186c-0.042,0.236-0.084,0.478-0.125,0.714
		c-1.424,8.09,5.462,13.4,11.691,13.4c4.123,0,7.96-2.327,8.907-7.723c0.168-0.946,0.341-1.892,0.521-2.834
		C394.685-15.473,387.632-16.692,380.87-18.186"/>
	<path fill="#BD1F1C" d="M495.431-119.254c2.112,7.539,3.345,15.198,3.447,22.692c7.393,2.028,14.295,5.4,20.688,9.76
		c0.805-8.313,0.432-16.78-0.93-25.202C511.361-115.516,503.623-118.018,495.431-119.254 M385.874-38.928
		c-2.069,6.728-3.733,13.672-5.003,20.742c6.762,1.491,13.814,2.713,20.996,3.559c1.344-7.035,3.081-13.988,5.271-20.701
		C399.831-36.141,392.669-37.4,385.874-38.928"/>
	<path fill="#39A1DB" d="M487.173-191.734c-1.701,0-3.509,0.467-5.343,1.541c-1.339,0.782-2.657,1.591-3.958,2.424
		c5.12,4.88,9.971,10.326,14.434,16.203c0.102-0.06,0.203-0.12,0.304-0.179C502.645-177.615,496.509-191.733,487.173-191.734
		 M461.05-174.624c-20.555,19.393-33.41,45.863-33.563,72.964c6.749-4.965,14.233-9.081,22.466-12.17
		c3.079-16.875,12.368-32.749,25.553-45.138C471.011-164.909,466.117-170.215,461.05-174.624 M449.766-90.695
		c-7.112,3.613-13.329,8.285-18.745,13.779c2.394,8.004,6.053,15.893,11.102,23.491c3.812,5.731,7.99,10.782,12.468,15.189
		c7.508-2.202,14.552-5.429,20.796-9.926c-5.446-4.246-10.436-9.552-14.814-16.051C454.8-72.778,451.305-81.72,449.766-90.695
		 M587.439-52.258c-1.637,0-3.367,0.409-5.131,1.343c-1.492,0.79-3.004,1.56-4.539,2.311c3.354,6.412,6.35,12.91,8.975,19.343
		c2.145-1.029,4.26-2.098,6.354-3.205C603.49-37.969,597.113-52.258,587.439-52.258 M558.135-40.552
		c-12.406,4.125-25.391,6.628-38.006,6.628c-8.285,0-16.412-1.079-24.109-3.49c-6.229,5.875-13.315,10.504-20.999,14.067
		c13.894,7.233,29.354,10.404,45.243,10.404c15.553,0,31.51-3.033,46.822-8.261C564.539-27.574,561.553-34.11,558.135-40.552"/>
	<path fill="#5E2E38" d="M477.872-187.769c-6.037,3.868-11.671,8.285-16.819,13.145c5.063,4.407,9.959,9.716,14.452,15.658
		c5.071-4.764,10.712-9.009,16.804-12.601C487.843-177.444,482.991-182.89,477.872-187.769 M475.388-48.161
		c-6.248,4.498-13.289,7.725-20.801,9.926c6.271,6.171,13.139,11.089,20.435,14.889c7.684-3.566,14.771-8.194,20.996-14.068
		C488.672-39.713,481.724-43.22,475.388-48.161"/>
	<path fill="#647346" d="M449.952-113.831c-8.235,3.088-15.717,7.207-22.464,12.169c-0.048,8.251,1.083,16.559,3.532,24.743
		c5.417-5.492,11.633-10.166,18.747-13.779C448.435-98.459,448.567-106.246,449.952-113.831 M577.77-48.605
		c-6.268,3.07-12.867,5.803-19.637,8.053c3.42,6.441,6.404,12.979,8.949,19.347c6.709-2.29,13.293-5,19.66-8.06
		C584.117-35.694,581.123-42.193,577.77-48.605"/>
</g>
</svg>
